HIERARCHY
ROOT Hips
{
	OFFSET 0.00000 0.00000 0.00000
	CHANNELS 6 Xposition Yposition Zposition Zrotation Yrotation Xrotation 
	JOINT LHipJoint
	{
		OFFSET 0 0 0
		CHANNELS 3 Zrotation Yrotation Xrotation
		JOINT LeftUpLeg
		{
			OFFSET 1.70593 -1.62653 0.87602
			CHANNELS 3 Zrotation Yrotation Xrotation
			JOINT LeftLeg
			{
				OFFSET 2.32330 -6.38322 0.00000
				CHANNELS 3 Zrotation Yrotation Xrotation
				JOINT LeftFoot
				{
					OFFSET 2.45016 -6.73177 0.00000
					CHANNELS 3 Zrotation Yrotation Xrotation
					JOINT LeftToeBase
					{
						OFFSET 0.13029 -0.35798 1.96980
						CHANNELS 3 Zrotation Yrotation Xrotation
						End Site
						{
							OFFSET 0.00000 -0.00000 1.01270
						}
					}
				}
			}
		}
	}
	JOINT RHipJoint
	{
		OFFSET 0 0 0
		CHANNELS 3 Zrotation Yrotation Xrotation
		JOINT RightUpLeg
		{
			OFFSET -1.80599 -1.62652 0.87602
			CHANNELS 3 Zrotation Yrotation Xrotation
			JOINT RightLeg
			{
				OFFSET -2.45375 -6.74162 0.00000
				CHANNELS 3 Zrotation Yrotation Xrotation
				JOINT RightFoot
				{
					OFFSET -2.45828 -6.75406 0.00000
					CHANNELS 3 Zrotation Yrotation Xrotation
					JOINT RightToeBase
					{
						OFFSET -0.13801 -0.37917 1.88456
						CHANNELS 3 Zrotation Yrotation Xrotation
						End Site
						{
							OFFSET -0.00000 -0.00000 0.97281
						}
					}
				}
			}
		}
	}
	JOINT LowerBack
	{
		OFFSET 0 0 0
		CHANNELS 3 Zrotation Yrotation Xrotation
		JOINT Spine
		{
			OFFSET 0.01003 2.00576 -0.14267
			CHANNELS 3 Zrotation Yrotation Xrotation
			JOINT Spine1
			{
				OFFSET 0.00908 2.01191 0.01660
				CHANNELS 3 Zrotation Yrotation Xrotation
				JOINT Neck
				{
					OFFSET 0 0 0
					CHANNELS 3 Zrotation Yrotation Xrotation
					JOINT Neck1
					{
						OFFSET -0.05849 1.60301 0.18934
						CHANNELS 3 Zrotation Yrotation Xrotation
						JOINT Head
						{
							OFFSET 0.01775 1.59435 -0.07960
							CHANNELS 3 Zrotation Yrotation Xrotation
							End Site
							{
								OFFSET 0.01210 1.70732 -0.05248
							}
						}
					}
				}
				JOINT LeftShoulder
				{
					OFFSET 0 0 0
					CHANNELS 3 Zrotation Yrotation Xrotation
					JOINT LeftArm
					{
						OFFSET 3.15315 1.26460 0.30667
						CHANNELS 3 Zrotation Yrotation Xrotation
						JOINT LeftForeArm
						{
							OFFSET 4.97694 -0.00000 -0.00000
							CHANNELS 3 Zrotation Yrotation Xrotation
							JOINT LeftHand
							{
								OFFSET 3.14391 -0.00000 -0.00000
								CHANNELS 3 Zrotation Yrotation Xrotation
								JOINT LeftFingerBase
								{
									OFFSET 0 0 0
									CHANNELS 3 Zrotation Yrotation Xrotation
									JOINT LeftHandIndex1
									{
										OFFSET 0.59358 -0.00000 -0.00000
										CHANNELS 3 Zrotation Yrotation Xrotation
										End Site
										{
											OFFSET 0.47856 -0.00000 -0.00000
										}
									}
								}
								JOINT LThumb
								{
									OFFSET 0 0 0
									CHANNELS 3 Zrotation Yrotation Xrotation
									End Site
									{
										OFFSET 0.48587 -0.00000 0.48587
									}
								}
							}
						}
					}
				}
				JOINT RightShoulder
				{
					OFFSET 0 0 0
					CHANNELS 3 Zrotation Yrotation Xrotation
					JOINT RightArm
					{
						OFFSET -3.25568 1.35581 0.18982
						CHANNELS 3 Zrotation Yrotation Xrotation
						JOINT RightForeArm
						{
							OFFSET -4.90473 -0.00000 0.00000
							CHANNELS 3 Zrotation Yrotation Xrotation
							JOINT RightHand
							{
								OFFSET -3.21621 0.00006 -0.00004
								CHANNELS 3 Zrotation Yrotation Xrotation
								JOINT RightFingerBase
								{
									OFFSET 0 0 0
									CHANNELS 3 Zrotation Yrotation Xrotation
									JOINT RightHandIndex1
									{
										OFFSET -0.62353 -0.00000 -0.00000
										CHANNELS 3 Zrotation Yrotation Xrotation
										End Site
										{
											OFFSET -0.50270 -0.00000 -0.00000
										}
									}
								}
								JOINT RThumb
								{
									OFFSET 0 0 0
									CHANNELS 3 Zrotation Yrotation Xrotation
									End Site
									{
										OFFSET -0.51038 -0.00000 0.51038
									}
								}
							}
						}
					}
				}
			}
		}
	}
}
MOTION
Frames: 7
Frame Time: .0083333
6.638800 14.661000 -43.730400 -6.729200 -9.840700 9.228400 0.000000 0.000000 0.000000 -1.890500 -13.813600 -45.781500 2.222900 9.315700 26.787900 1.687700 -2.745200 -23.842400 0.037600 -1.251400 -3.440800 0.000000 0.000000 0.000000 28.370100 -2.380800 19.022200 0.000000 0.000000 -0.000000 -0.000000 -0.000000 0.000000 -0.000000 -0.000000 0.000000 6.422000 5.529800 -0.753100 1.012200 7.439800 -2.873600 -2.537800 3.599700 -1.876600 -2.088300 -2.306100 -9.876100 2.593900 -3.150900 12.094500 0.914700 -1.454500 5.339300 0.000000 0.000000 0.000000 -88.324800 19.206600 -23.484000 2.097500 -3.627300 -0.066400 -0.000000 -0.000000 42.317200 24.003800 -8.697600 -3.852400 -7.125000 0.000000 -0.000000 -2.080500 20.476100 1.222000 0.000000 0.000000 0.000000 83.854700 4.944800 36.647300 -45.172800 50.852800 -22.372600 0.000000 -0.000000 -8.269900 -25.714800 -28.884200 13.095500 7.125000 -0.000000 -0.000000 6.042200 -61.359000 -2.411700
6.656600 14.661600 -43.460000 -6.159700 -9.708800 9.076300 0.000000 0.000000 0.000000 -2.424500 -14.660300 -44.727600 2.145700 9.163200 26.307300 1.683200 -3.976000 -23.576200 0.008800 0.604600 1.661300 0.000000 0.000000 0.000000 27.332800 -2.780900 19.854500 0.000000 -0.000000 0.000000 -0.000000 -0.000000 0.000000 -0.000000 -0.000000 0.000000 5.799200 5.316500 -0.823100 0.834800 7.138200 -2.737400 -2.372300 3.466100 -1.771400 -2.788500 -2.350400 -11.249300 3.433100 -3.215400 13.041300 1.271000 -1.440000 5.895900 0.000000 -0.000000 0.000000 -88.355800 18.991800 -23.920400 1.613700 -2.792400 -0.039300 -0.000000 -0.000000 41.216500 23.917300 -6.861400 -3.032900 -7.125000 0.000000 -0.000000 -2.091100 22.482400 1.133300 0.000000 -0.000000 0.000000 83.831200 5.259500 36.792800 -45.576300 51.047700 -22.686000 0.000000 -0.000000 -7.846500 -25.957700 -27.943900 12.850800 7.125000 -0.000000 -0.000000 5.288400 -60.441900 -1.994600
6.675200 14.655100 -43.184000 -5.884600 -9.365200 8.966300 0.000000 0.000000 0.000000 -3.882100 -13.889700 -44.210700 2.094500 9.060200 25.983900 1.352100 -4.273600 -20.994300 0.046000 1.383900 3.805800 0.000000 0.000000 0.000000 26.651700 -3.348500 20.656200 0.000000 -0.000000 0.000000 -0.000000 -0.000000 0.000000 -0.000000 -0.000000 0.000000 5.628700 5.116800 -1.074100 0.677500 6.857700 -2.902800 -2.429400 3.323600 -1.824800 -2.463200 -2.493100 -9.999900 3.110400 -3.417700 12.163600 1.114900 -1.564700 5.403900 0.000000 0.000000 0.000000 -88.264100 19.623900 -24.169300 1.249400 -2.162800 -0.023600 -0.000000 -0.000000 40.037800 23.625400 -4.970400 -2.170400 -7.125000 0.000000 -0.000000 -2.277600 24.557500 1.125800 0.000000 0.000000 0.000000 83.975100 4.756400 36.771500 -46.014400 51.255900 -23.027300 0.000000 -0.000000 -7.549500 -25.846800 -27.232300 12.498800 7.125000 -0.000000 -0.000000 5.084400 -59.670900 -1.824000
6.683700 14.638600 -42.913800 -5.584400 -9.373200 8.738300 0.000000 0.000000 0.000000 -5.984700 -11.997200 -44.094900 2.130000 9.131800 26.208400 0.922800 -3.095300 -17.375900 0.049000 1.428500 3.928700 0.000000 0.000000 0.000000 25.989500 -3.683500 21.687200 0.000000 0.000000 -0.000000 -0.000000 -0.000000 0.000000 -0.000000 -0.000000 0.000000 5.266200 5.396500 -1.136000 0.239300 7.241600 -3.516300 -2.704300 3.493000 -2.381700 -1.345000 -2.822400 -6.914200 2.826400 -3.977900 10.744300 0.853000 -1.849900 4.434200 0.000000 0.000000 0.000000 -87.220900 21.406700 -23.151900 1.203400 -2.083300 -0.021900 -0.000000 -0.000000 39.073800 22.449700 -2.176800 -0.899100 -7.125000 0.000000 -0.000000 -3.184100 27.620500 1.347000 0.000000 0.000000 0.000000 84.739700 2.794100 35.568700 -46.860600 51.648100 -23.689100 0.000000 -0.000000 -7.225800 -25.731600 -26.896500 12.299300 7.125000 -0.000000 -0.000000 5.065100 -59.291800 -1.771100
6.688400 14.648300 -42.649500 -5.353000 -9.081500 8.534000 0.000000 0.000000 0.000000 -7.482000 -10.807900 -44.133100 2.230400 9.330400 26.834400 0.542300 -0.204800 -13.844900 0.001100 -0.210500 -0.578400 0.000000 0.000000 0.000000 25.307700 -4.128100 22.389400 0.000000 0.000000 -0.000000 -0.000000 -0.000000 0.000000 -0.000000 -0.000000 0.000000 4.796900 5.287500 -0.937700 0.117200 7.109900 -3.705100 -2.609300 3.424900 -2.737700 -1.232600 -2.854200 -6.571600 2.973700 -4.046100 10.421900 0.982600 -1.884600 4.755900 0.000000 0.000000 0.000000 -86.994900 21.923800 -23.084900 0.998800 -1.729400 -0.015100 -0.000000 -0.000000 38.537100 20.988400 1.514600 0.580900 -7.125000 0.000000 -0.000000 -4.474400 31.582500 1.472200 0.000000 0.000000 0.000000 84.971400 1.767100 35.199500 -47.594400 51.978000 -24.265800 0.000000 -0.000000 -7.321300 -26.027400 -26.698000 12.374500 7.125000 -0.000000 -0.000000 4.643900 -59.153800 -1.608100
6.699600 14.709100 -42.361900 -4.938300 -8.762700 8.430600 0.000000 0.000000 0.000000 -8.929600 -9.961000 -44.563900 2.400600 9.654800 27.865900 0.137400 3.809000 -9.457100 1.266900 -7.134500 -20.114500 0.000000 0.000000 0.000000 24.455700 -4.523500 22.869700 0.000000 -0.000000 0.000000 -0.000000 -0.000000 0.000000 -0.000000 -0.000000 0.000000 4.213300 4.968600 -1.104300 0.117200 6.668700 -3.650400 -2.276100 3.222500 -2.683800 -1.610800 -2.677600 -7.046400 3.478700 -3.841600 11.159900 1.100600 -1.750700 4.598600 -0.000000 -0.000000 0.000000 -87.381600 21.942400 -23.734000 0.742200 -1.285400 -0.008300 -0.000000 -0.000000 38.075100 19.232900 5.132700 1.787700 -7.125000 0.000000 -0.000000 -6.201900 35.358600 1.476100 -0.000000 -0.000000 0.000000 84.856000 1.331300 35.418600 -47.887600 52.107200 -24.497000 0.000000 -0.000000 -7.730800 -26.175200 -26.683400 12.447000 7.125000 -0.000000 -0.000000 4.470300 -59.173600 -1.549900
6.723800 14.755100 -42.049900 -4.545000 -8.795100 8.444400 0.000000 0.000000 0.000000 -7.614900 -12.467500 -43.178200 2.616900 10.047400 29.130500 0.340000 1.518400 -11.673400 0.353100 3.817800 10.564600 0.000000 0.000000 0.000000 23.560100 -4.551600 23.410800 0.000000 0.000000 -0.000000 -0.000000 -0.000000 0.000000 -0.000000 -0.000000 0.000000 3.801500 4.864700 -1.793500 -0.007400 6.489100 -3.578400 -2.110200 3.152800 -2.264100 -1.488500 -2.673600 -6.986800 3.555000 -3.856200 11.032000 1.104600 -1.750500 4.549100 0.000000 -0.000000 0.000000 -87.701200 22.490400 -24.165000 0.989100 -1.712500 -0.014800 -0.000000 -0.000000 37.507000 16.494700 7.591400 2.240200 -7.125000 0.000000 -0.000000 -8.815600 37.758800 1.586200 0.000000 -0.000000 0.000000 85.043000 0.824400 35.179100 -47.837500 52.085200 -24.457500 0.000000 -0.000000 -7.875600 -25.775900 -26.466000 12.145500 7.125000 -0.000000 -0.000000 4.828600 -58.850700 -1.637200
